<?xml version="1.0" standalone="no"?>
<!DOCTYPE svg PUBLIC "-//W3C//DTD SVG 20010904//EN"
 "http://www.w3.org/TR/2001/REC-SVG-20010904/DTD/svg10.dtd">
<svg version="1.0" xmlns="http://www.w3.org/2000/svg"
 width="512.000000pt" height="512.000000pt" viewBox="0 0 512.000000 512.000000"
 preserveAspectRatio="xMidYMid meet">

<g transform="translate(0.000000,512.000000) scale(0.100000,-0.100000)"
fill="#000000" stroke="none">
<path d="M442 5100 c-106 -28 -187 -75 -267 -155 -81 -81 -127 -161 -155 -271
-20 -75 -20 -117 -20 -1794 0 -1677 0 -1719 20 -1794 28 -110 74 -190 155
-271 81 -81 161 -127 271 -155 74 -19 113 -20 895 -20 l819 0 5 22 c3 13 14
77 25 143 25 141 42 199 83 280 26 51 133 162 694 726 l664 665 -3 1080 c-3
1015 -4 1082 -22 1134 -70 212 -221 359 -421 410 -76 20 -111 20 -1374 19
-1243 0 -1299 -1 -1369 -19z m1370 -863 c84 -49 124 -149 97 -244 -16 -59 -78
-124 -135 -141 -59 -17 -929 -17 -988 0 -81 25 -146 118 -146 210 0 82 78 178
162 198 18 5 242 8 498 7 l465 -2 47 -28z m1080 -862 c124 -88 124 -262 0
-350 l-44 -30 -1011 -3 c-710 -2 -1023 0 -1050 8 -148 43 -195 247 -81 351 68
62 -10 59 1116 56 l1026 -2 44 -30z m-887 -834 c158 -72 167 -295 15 -381
l-45 -25 -590 0 -590 0 -47 28 c-121 71 -142 234 -43 332 22 22 56 46 75 52
24 7 218 11 610 12 536 1 578 -1 615 -18z"/>
<path d="M4443 2616 c-23 -7 -64 -26 -90 -41 -58 -33 -1685 -1654 -1707 -1700
-8 -17 -43 -189 -77 -382 l-62 -351 24 -49 c26 -51 83 -93 129 -93 50 0 700
119 727 134 15 8 400 387 854 843 911 913 864 860 876 1002 7 80 -14 163 -57
231 -46 72 -347 363 -403 389 -59 29 -156 36 -214 17z"/>
</g>
</svg>
